<?xml version="1.0" encoding="UTF-8"?>
<!-- Generator: Adobe Illustrator 25.4.0, SVG Export Plug-In . SVG Version: 6.00 Build 0)  -->
<svg version="1.1" xmlns="http://www.w3.org/2000/svg" xmlns:xlink="http://www.w3.org/1999/xlink" x="0px" y="0px" viewBox="0 0 315.92 126.75" style="enable-background:new 0 0 315.92 126.75;" xml:space="preserve">
<style type="text/css">
	.st0{fill:#ED1C24;}
	.st1{fill:url(#SVGID_1_);}
	.st2{fill:url(#SVGID_00000052811194959181775340000011248405384368008071_);}
	.st3{fill:url(#SVGID_00000119819200972857424980000017232265072189377431_);}
	.st4{fill:url(#SVGID_00000037672069861966706120000004031638096992580994_);}
	.st5{fill:url(#SVGID_00000134218672986257379040000003617220962880097921_);}
	.st6{display:none;}
</style>
<symbol id="c-dragon" viewBox="-205.8 -66.3 411.6 132.59">
	<g>
		<path class="st0" d="M193.21,19.41c4.45,0,8.06,3.62,8.06,8.07v3.37h4.52v5.58h-5.53c-0.83,0-2.09,0.79-2.45,1.54    c0,0-1.28,2.67-2.66,5.57h9.05v5.58h-10.44v6.87h10.44v5.58h-10.44v4.74h-5.58v-4.74h-15.4v4.74h-5.58v-4.74h-9.91v-5.58h9.91    v-6.87h-9.91v-5.58h8.52l-2.66-5.56c-0.35-0.75-1.61-1.54-2.44-1.54h-5.52v-5.58h4.92c-0.25-0.78-0.4-1.62-0.4-2.48v-1.63v-0.38    V16.04c0-4.45,3.62-8.07,8.06-8.07h36.43v5.58h-36.43c-1.37,0-2.48,1.11-2.48,2.49v3.37H193.21z M188.2,55.98v-6.87h-15.4v6.87    H188.2z M188.99,43.53l3.39-7.11h-23.76l3.39,7.11H188.99z M165.3,26.73v1.63c0,1.37,1.11,2.48,2.48,2.48h25.43    c1.37,0,2.48-1.11,2.48-2.48v-0.89c0-1.37-1.12-2.48-2.48-2.48H165.3v1.36V26.73z"/>
		<rect x="146.87" y="55.98" class="st0" width="5.58" height="10.32"/>
		<rect x="146.87" y="36.35" class="st0" width="5.58" height="12.76"/>
		<rect x="146.87" y="7.97" class="st0" width="5.58" height="21.51"/>
		<path class="st0" d="M128.07,37.96l-4.55,9.54h10.77v5.58h-26.37v7.62h24v5.58h-24h-5.58H78.59v-5.58h23.74v-7.62H75.96v-5.58    h11.29l-4.56-9.54c-0.36-0.75-1.61-1.54-2.44-1.54h-7.04v-5.58h7.04c0.02,0,0.04,0,0.05,0c-0.25-0.78-0.4-1.62-0.4-2.49v-3.37    v-5.58v-3.37c0-4.45,3.62-8.07,8.07-8.07h34.29c4.45,0,8.06,3.62,8.06,8.07v3.37v5.58v3.37c0,0.88-0.15,1.73-0.41,2.53    c0.2-0.02,0.4-0.05,0.6-0.05h7.04v5.58h-7.04C129.69,36.42,128.43,37.22,128.07,37.96z M117.34,47.51l5.3-11.1    c-0.12,0-0.24,0.02-0.36,0.02h-14.35v11.08H117.34z M102.33,47.51V36.42H88.15l5.29,11.08H102.33z M124.75,16.04    c0-1.37-1.11-2.49-2.48-2.49H87.98c-1.37,0-2.48,1.11-2.48,2.49v3.37h39.26V16.04z M85.49,24.99v3.37c0,1.37,1.12,2.48,2.48,2.48    h34.29c1.37,0,2.48-1.11,2.48-2.48v-3.37H85.49z"/>
	</g>
	
		<use xlink:href="#gradient_x5F_dragon_x5F_only" width="514.12" height="119.41" id="XMLID_34_" x="-257.06" y="-59.7" transform="matrix(0.8006 0 0 0.8006 -5.000000e-04 -18.4971)" style="overflow:visible;"/>
</symbol>
<symbol id="e-dragon" viewBox="-205.8 -69.5 411.6 139.01">
	<g>
		<g>
			<path class="st0" d="M107.64,47.66v12.85c0,5.73,2.69,8.21,8.9,8.21h11.47c6.22,0,8.9-2.48,8.9-8.21V47.66     c0-5.74-2.68-8.22-8.9-8.22h-11.47C107.23,39.45,107.64,47.66,107.64,47.66z M115.28,43.71c0.21,0,0.41-0.04,0.61-0.04h12.81     c0.2,0,0.41,0.04,0.57,0.04c2.6,0.16,3.37,0.98,3.37,3.66v13.34c0,2.72-0.77,3.58-3.34,3.74c-0.2,0-0.4,0.04-0.61,0.04h-12.81     c-0.21,0-0.41-0.04-0.61-0.04c-2.6-0.16-3.41-1.02-3.41-3.74V47.45C111.87,44.73,112.68,43.88,115.28,43.71z"/>
			<path class="st0" d="M73.21,39.45v29.27h4.23V56.11h20.78v12.61h4.27V39.45h-4.27v12.44H77.44V39.45H73.21z"/>
			<path class="st0" d="M171.33,68.72h-4.27V44.58c0,0,0,0-0.01,0c0,0-19.7,23.94-19.74,23.98c-0.56,0.59-1.34,0.95-2.21,0.95     c-1.69,0-3.05-1.37-3.05-3.05c0-0.05,0-27,0-27h4.23v23.66l18.7-22.62c1.06-1.09,1.77-1.68,2.93-1.73     c0.12-0.02,0.24-0.03,0.37-0.03c1.69,0,3.05,1.37,3.05,3.06C171.33,41.92,171.33,68.72,171.33,68.72z"/>
			<g>
				<path class="st0" d="M176.48,47.01v14.03c0,5.04,2.64,7.69,7.81,7.69h21.51v-4.23h-21.87c-0.21,0-0.37-0.04-0.53-0.04      c-1.99-0.24-2.68-0.97-2.68-3.13V46.76c0-0.21,0.04-0.41,0.08-0.61c0.24-1.59,0.9-2.24,2.24-2.48h1.13h14.24      c1.83,0,2.84,0.81,3.09,2.56c0.04,0.12,0.04,0.28,0.04,0.45v9.43h4.23v-8.99c0-1.78-0.16-2.76-0.65-3.74      c-1.38-2.85-3.29-3.94-6.71-3.94h-14.2c-1.75,0-2.68,0.2-3.7,0.69C177.58,41.6,176.48,43.55,176.48,47.01z"/>
				<rect x="192.33" y="51.97" class="st0" width="13.43" height="4.22"/>
			</g>
		</g>
		<g>
			<g>
				<path class="st0" d="M176.48,11.72v14.03c0,5.04,2.64,7.68,7.81,7.68h21.51V29.2h-21.87c-0.21,0-0.37-0.04-0.53-0.04      c-1.99-0.24-2.68-0.97-2.68-3.13V11.47c0-0.21,0.04-0.41,0.08-0.61c0.24-1.58,0.9-2.23,2.24-2.48h1.13h14.24      c1.83,0,2.84,0.81,3.09,2.56c0.04,0.12,0.04,0.28,0.04,0.45v9.43h4.23v-8.98c0-1.79-0.16-2.77-0.65-3.74      c-1.38-2.85-3.29-3.95-6.71-3.95h-14.2c-1.75,0-2.68,0.21-3.7,0.7C177.58,6.31,176.48,8.26,176.48,11.72z"/>
				<rect x="192.33" y="16.68" class="st0" width="13.43" height="4.22"/>
			</g>
			<path class="st0" d="M107.64,12.37v12.85c0,5.73,2.68,8.21,8.91,8.21h11.46c6.22,0,8.9-2.48,8.9-8.21V12.37     c0-5.73-2.68-8.22-8.9-8.22h-11.46C107.23,4.15,107.64,12.37,107.64,12.37z M115.29,8.42c0.21,0,0.41-0.04,0.61-0.04h12.81     c0.2,0,0.41,0.04,0.57,0.04c2.6,0.16,3.37,0.98,3.37,3.66v13.34c0,2.73-0.77,3.58-3.34,3.74c-0.2,0-0.4,0.04-0.61,0.04h-12.81     c-0.2,0-0.4-0.04-0.61-0.04c-2.6-0.16-3.41-1.01-3.41-3.74V12.17C111.87,9.44,112.69,8.58,115.29,8.42z"/>
			<path class="st0" d="M171.33,33.43h-4.27V9.29c0,0-0.01,0-0.01,0s-19.7,23.94-19.74,23.98c-0.56,0.58-1.34,0.95-2.21,0.95     c-1.69,0-3.05-1.37-3.05-3.05c0-0.05,0-27.01,0-27.01h4.23v23.67l18.7-22.63c1.06-1.09,1.76-1.68,2.92-1.73     c0.12-0.01,0.25-0.02,0.37-0.02c1.69,0,3.05,1.37,3.05,3.05C171.33,6.64,171.33,33.43,171.33,33.43z"/>
			<g>
				<rect x="73.21" y="4.16" class="st0" width="4.23" height="29.28"/>
				<g>
					<g>
						<path class="st0" d="M93.39,17.94c-1.77,2.2-3.14,3.08-5.54,3.08H75.28v-4.24h12.57c0.99,0,1.78-0.8,2.18-1.38l9.22-11.23        h5.59L93.39,17.94z"/>
					</g>
					<g>
						<path class="st0" d="M93.39,19.86c-1.77-2.2-3.14-3.09-5.54-3.09H75.28v4.25h12.57c0.99,0,1.78,0.8,2.18,1.38l9.07,11.04h5.59        L93.39,19.86z"/>
					</g>
				</g>
			</g>
		</g>
	</g>
	
		<use xlink:href="#gradient_x5F_dragon_x5F_only" width="514.12" height="119.41" id="XMLID_20_" x="-257.06" y="-59.7" transform="matrix(0.8006 0 0 0.8006 0 -21.7051)" style="overflow:visible;"/>
</symbol>
<symbol id="gradient_x5F_dragon_x5F_only" viewBox="-257.06 -59.7 514.12 119.41">
	<linearGradient id="SVGID_1_" gradientUnits="userSpaceOnUse" x1="149.7441" y1="-35.0497" x2="220.2031" y2="-35.0497">
		<stop offset="0.25" style="stop-color:#A3238E"/>
		<stop offset="0.6" style="stop-color:#D80B8C"/>
	</linearGradient>
	<path class="st1" d="M201.51-27.96c-6.25,5.26-9.22,7.13-15.9,7.13c-6.45,0-13.42-3.58-18.88-7.05c-2.75-1.75-5.63-3.42-8.79-4.07   c-2.46-0.51-6.28-0.69-8.2,2.08c3.58-9.52,11.28-9.06,18.85-5.29c7.23,3.61,16.13,15.13,28.74,6.5c-5.86,3.19-13.02,1.71-22.19-5.6   c-9.96-7.93-15.46-6.75-18.24-5.23c8.28-7.7,20.06,2.99,28.28,6.3c5.02,2.02,10.34,1.66,15.44,0.2c5.02-1.44,12.65-4.28,19.58,1.25   C213.91-34.04,206.79-32.41,201.51-27.96z M192.3-38.86c-3.13-0.33-4.57-0.28-7.49-1.6c4.05,3.21,7.1,5.36,11.98,5.59   c-12.43,5.07-20.19-13.35-33.01-8.56c7.47-5.29,13.52-2.3,18.02,0c2.57,0.99,5.62,1.43,7.34,1.52c-3.42-3.59-7.98-6.59-12.72-6.74   c8.04-2.26,13.49,2.17,18.44,6.15c3.25,2.61,5.52,5.56,10.67,5.26c0.52-0.03,1.17-0.02,1.49-0.03c-0.17,0.04-0.55,0.17-0.71,0.21   C201.05-35.42,196.15-36.16,192.3-38.86z"/>
	
		<linearGradient id="SVGID_00000059281055428776387670000010829992909295255730_" gradientUnits="userSpaceOnUse" x1="182.8281" y1="-21.153" x2="257.0577" y2="-21.153">
		<stop offset="0.25" style="stop-color:#FAA61A"/>
		<stop offset="0.6" style="stop-color:#ED1C24"/>
	</linearGradient>
	<path style="fill:url(#SVGID_00000059281055428776387670000010829992909295255730_);" d="M242.7-27.48   c-2.32,0.79-3.94,1.43-6.55,0.99c1.32,0.85,5.3,1.36,7.72,0.92c-13.63,6.54-20.19-13.97-35.9-11.9c6.82-3.48,14.72-0.66,20.33,3.75   c7.06,5.55,10.34-2.84,16.43,1.68c-2.19-0.75-3.97,0.7-5.98,1.85c-1.85,1.07-3.95,1.89-5.7,0.55c4.21,4.27,10.1-3.84,14.97,1.66   C246.36-28.81,244.28-28.09,242.7-27.48z M255.13-10.4c0.19-2.17-1.7-2.89-3.34-3.26c-3.72-0.83-9.83,0.9-11.79,2.43   c5.67,3.64-6.31,8.78-11.12,6.32c6.46-0.35,4.75-4.37-1.11-4.59c-4.55-0.17-10.83,1.62-13.49,6.22c0.19-4.56,3.01-7.97,7.16-9.05   c-4.27-1.36-17.38-0.13-21.47,7.18c0.95-8.45,10.08-14.33,17.04-13.85c-5.27-3.83-10.56-1.73-16.63,0.71   c-5.93,2.35-11.32,5.62-17.56,0.99c8.13,2.12,13.5-3.12,19.02-7.56c5.65-4.52,9.16-6.77,15.96-5.85   c8.01,1.08,13.36,8.61,22.64,8.61c4.42,0,6.73-2.5,9.58-2.5c1.18-0.03,2.35,0.35,3.53,1.48c-3.47-1.15-4.79,1.47-2.96,1.15   c3.23-0.57,5.62,1.93,6.21,4.29C257.28-15.84,257.28-13.34,255.13-10.4z M234.4-18.01c-1.06,0-1.91,0.85-1.91,1.91   c0,1.06,0.85,1.92,1.91,1.92c1.06,0,1.92-0.86,1.92-1.92C236.31-17.15,235.46-18.01,234.4-18.01z"/>
	
		<linearGradient id="SVGID_00000009582212677745937180000015829261791390558598_" gradientUnits="userSpaceOnUse" x1="-214.3438" y1="-23.1172" x2="200.2515" y2="-23.1172">
		<stop offset="0.0411" style="stop-color:#A6CE39"/>
		<stop offset="0.0934" style="stop-color:#A6CE39"/>
		<stop offset="0.6" style="stop-color:#00A651"/>
	</linearGradient>
	<path style="fill:url(#SVGID_00000009582212677745937180000015829261791390558598_);" d="M-214.34,4.42   c1.04-30.87,27.49-77.14,65.72-60.68c13,5.6,24.2,21.67,30.88,25.88c16.41,10.35,38.46-7.59,55.17-16.09   c19.38-9.92,41.96-10.29,61.32,0.28c21.96,11.4,43.27,25.46,64.84,37.16c7.8,4.23,15.8,7.88,24.25,10.63   c28.59,9.83,54.89,10.18,82.9-2.76c1.17-0.42,4.88-1.75,8.57-3.52c7.39-3.54,19.13-9.38,20.95-10.06   c-0.61,0.75-4.23,4.71-8.89,7.44c-3.24,1.9-6.69,4.11-10.03,5.86c-3.82,2.02-7.15,3.6-9.11,4.27   c-25.87,11.26-51.81,13.99-79.85,6.24C80.84,6.34,69.92,1.84,59.35-3.43C37.75-14.2,17.12-26.71-4.69-37.5   c-16.14-7.02-35.34-8.97-52.23-3.37c-21.82,6.69-46.17,28.85-66.78,11.57c-36.58-30.67-69.27-27.57-89.61,33.92   C-213.66,5.68-214.38,5.58-214.34,4.42z"/>
	<g>
		
			<linearGradient id="SVGID_00000165198434054478683710000017499953886266421125_" gradientUnits="userSpaceOnUse" x1="-257.0582" y1="-1.6799" x2="254.8315" y2="-1.6799">
			<stop offset="0.25" style="stop-color:#FAA61A"/>
			<stop offset="0.5899" style="stop-color:#ED1C24"/>
		</linearGradient>
		<path style="fill:url(#SVGID_00000165198434054478683710000017499953886266421125_);" d="M216.05,11.36    c-41.01,1.97-89.67-17.15-109.68-21.89c-15.8-3.74-28.16-6.98-36.56-5.51C55.24-13.49,54.51-4.38,44.76,2.91    c-1.48,1.11-2.88,2.14-4.68,2.6c-6.67,2.8-17.04-1.03-21.56-0.55c-0.28,0.03-0.55,0.08-0.82,0.14c-5.21,2.51-6.58,7.3-12.1,9.07    c-5.96,1.92-13.28,0.25-19.79-2.15c-3.63-1.34-6.37-1.95-9.4-1.17c-0.96,0.39-1.95,0.9-3.04,1.59    c-5.28,3.34-10.21,9.84-12.25,12.62c-1.17,1.58-3.94,6.25-9.02,6.47c-3.87,0.16-5.38-1-7.79-3.19c-1.46-1.32-2.66-1.61-3.32-1.55    c-2.49,0.22-4.6,1.28-6.38-0.91c-1.51-1.87-0.7-5.73-0.91-8.02c-0.57-6.14-4.37-9.47-7.43-11.54c-3.96-2.68-7.19-1.65-12.84-5.04    c-3.22-1.93-1.51-9.83-9.43-7.1c-15.67,4.74-31.03,7.46-44.55,4.65c-25.98-5.41-47.66-21.87-74.24-25.29    c-12.92-1.66-24.33,0.16-39.67,7.07c-1.78,0.82-3.1,0.82-2.39,0.18c14.05-12.57,31.1-17.34,47.68-15.15    c27.26,3.61,50.25,26.79,77.38,28.4c18.61,1.71,26.06-2.21,40.36-5.79c0,0,2.8-0.85,3.96,0.89c1.17,1.74,1.28,3.14,2.46,3.85    c5.67,3.41,8.73,2.24,12.71,4.93c3.07,2.07,6.38,5.42,7.45,11.59c0.4,2.27-0.25,6.53,0.92,8.05c1.72,2.24,3.9,1.14,6.4,0.91    c0.67-0.06,1.88,0.23,3.34,1.55c2.42,2.2,3.93,3.2,7.82,3.2c5.28,0,7.89-4.91,9.05-6.5c2.05-2.79,7-9.32,12.31-12.67    c1.08-0.68,2.09-1.2,3.05-1.59c3.04-0.78,5.79-0.17,9.44,1.18C-5.99,6.06,1.41,7.51,7.1,5.87c5.21-1.5,8.29-7.56,12.39-9.18    c0.27-0.06,0.54-0.11,0.82-0.14c4.54-0.48,14.95,3.37,21.65,0.55c1.79-0.46,3.21-1.49,4.7-2.61c7.17-5.36,10.81-10.1,18-13.25    c0.67-0.17,1.43-0.59,2.1-0.77c15.58-4.19,29.31-0.4,44.95,2.91c23.53,4.98,70.8,24.34,104.85,24.18    c24.37-0.12,35.85-8.83,38.26-16.29C253.62,1.11,243.13,10.05,216.05,11.36z"/>
		
			<linearGradient id="SVGID_00000012430973679373575390000002178628607603188634_" gradientUnits="userSpaceOnUse" x1="52.0718" y1="15.5036" x2="-124.4985" y2="15.5036">
			<stop offset="0" style="stop-color:#A3238E"/>
			<stop offset="0.25" style="stop-color:#2E3192"/>
			<stop offset="0.5" style="stop-color:#00AEEF"/>
		</linearGradient>
		<path style="fill:url(#SVGID_00000012430973679373575390000002178628607603188634_);" d="M132.51-19.61    c-22.64,5.73-38.79,19.43-53.46,33.55C59.58,32.69,38.67,51.05,11.5,56.99c-14.95,3.27-30.64,3.57-45.9,1.01    c-19.46-3.29-38.16-11.27-55.33-20.95c-2.88-1.6-5.73-3.24-8.57-4.88c-19.88-11.47-38.56-23.3-62.23-22.79    c-26.95,0.58-41.17,37.92-67.65,31.5c-0.3-0.07,0.01-0.59,1.2-0.71c11.76-1.22,14.62-5.62,22.57-12.91    c9.97-9.14,20.04-16.88,35.21-20.85c28.69-7.51,53.91,3.33,76.9,17.86c6.88,4.35,39.3,21.77,56.79,26.54    c16.59,4.53,33.51,5.34,49.34,1.63C39.07,46.5,56.37,26.42,74.63,9.46C81.91,2.7,89.4-3.88,96.19-9.27    c23.79-18.93,44.73-10.43,53.06-19.42C146.98-24.03,141.72-21.83,132.51-19.61"/>
	</g>
</symbol>
<g id="Layer_1">
	
		<use xlink:href="#e-dragon" width="411.6" height="139.01" id="XMLID_2_" x="-205.8" y="-69.5" transform="matrix(0.71 0 0 -0.71 154.9408 63.5283)" style="overflow:visible;"/>
</g>
<g id="Layer_2" class="st6">
	
		<use xlink:href="#c-dragon" width="411.6" height="132.59" id="XMLID_3_" x="-205.8" y="-66.3" transform="matrix(0.71 0 0 -0.71 154.9412 65.806)" style="display:inline;overflow:visible;"/>
</g>
</svg>